<?xml version="1.0" encoding="UTF-8" standalone="no"?>
<!DOCTYPE svg PUBLIC "-//W3C//DTD SVG 1.1//EN" "http://www.w3.org/Graphics/SVG/1.1/DTD/svg11.dtd">
<svg width="100%" height="100%" viewBox="0 0 103 103" version="1.1" xmlns="http://www.w3.org/2000/svg" xmlns:xlink="http://www.w3.org/1999/xlink" xml:space="preserve" xmlns:serif="http://www.serif.com/" style="fill-rule:evenodd;clip-rule:evenodd;stroke-linejoin:round;stroke-miterlimit:2;">
    <g transform="matrix(1,0,0,1,-1112,-2292.56)">
        <g transform="matrix(1,0,0,1,-49,2160.56)">
            <g transform="matrix(2.01961,0,0,2.01961,946.922,-871.745)">
                <path d="M157,509.75C157,502.713 151.287,497 144.25,497L118.75,497C111.713,497 106,502.713 106,509.75L106,535.25C106,542.287 111.713,548 118.75,548L144.25,548C151.287,548 157,542.287 157,535.25L157,509.75Z" style="fill:rgb(230,230,230);"/>
                <g transform="matrix(0.565789,0,0,0.565789,131.5,522.5)">
                    <g transform="matrix(1,0,0,1,-38,-38)">
                        <path d="M24.909,33.031C24.909,33.769 24.989,34.368 25.128,34.807C25.305,35.301 25.519,35.781 25.767,36.244C25.866,36.403 25.906,36.563 25.906,36.703C25.906,36.902 25.787,37.102 25.527,37.301L24.27,38.139C24.091,38.259 23.911,38.319 23.751,38.319C23.552,38.319 23.352,38.219 23.152,38.04C22.884,37.751 22.643,37.437 22.434,37.102C22.235,36.763 22.035,36.383 21.816,35.924C20.259,37.76 18.303,38.678 15.948,38.678C14.272,38.678 12.935,38.199 11.957,37.242C10.98,36.283 10.481,35.006 10.481,33.41C10.481,31.714 11.08,30.337 12.297,29.299C13.514,28.262 15.131,27.743 17.186,27.743C17.864,27.743 18.563,27.802 19.301,27.902C20.04,28.002 20.798,28.162 21.596,28.341L21.596,26.885C21.596,25.368 21.277,24.31 20.658,23.692C20.02,23.073 18.942,22.774 17.405,22.774C16.707,22.774 15.989,22.854 15.25,23.033C14.512,23.213 13.793,23.432 13.095,23.712C12.776,23.851 12.536,23.931 12.396,23.971C12.257,24.011 12.157,24.031 12.077,24.031C11.798,24.031 11.658,23.831 11.658,23.412L11.658,22.434C11.658,22.115 11.698,21.876 11.798,21.736C11.898,21.596 12.077,21.457 12.357,21.317C13.055,20.958 13.893,20.658 14.871,20.419C15.849,20.16 16.887,20.04 17.984,20.04C20.359,20.04 22.095,20.579 23.213,21.656C24.31,22.734 24.869,24.37 24.869,26.565L24.869,33.031L24.909,33.031L24.909,33.031ZM16.807,36.064C17.465,36.064 18.144,35.944 18.862,35.705C19.581,35.465 20.219,35.026 20.758,34.428C21.077,34.049 21.317,33.63 21.436,33.151C21.556,32.672 21.636,32.093 21.636,31.414L21.636,30.576C21.031,30.429 20.418,30.316 19.8,30.237C19.178,30.158 18.551,30.118 17.924,30.117C16.587,30.117 15.609,30.377 14.951,30.916C14.292,31.454 13.973,32.213 13.973,33.21C13.973,34.148 14.212,34.847 14.711,35.326C15.19,35.825 15.889,36.064 16.807,36.064ZM32.831,38.219C32.472,38.219 32.232,38.159 32.073,38.02C31.913,37.9 31.773,37.621 31.654,37.242L26.964,21.816C26.844,21.417 26.784,21.157 26.784,21.018C26.784,20.699 26.944,20.519 27.263,20.519L29.219,20.519C29.598,20.519 29.858,20.579 29.997,20.718C30.157,20.838 30.277,21.118 30.396,21.497L33.749,34.707L36.862,21.497C36.962,21.098 37.081,20.838 37.241,20.718C37.401,20.599 37.68,20.519 38.039,20.519L39.636,20.519C40.015,20.519 40.274,20.579 40.434,20.718C40.594,20.838 40.733,21.118 40.813,21.497L43.966,34.867L47.418,21.497C47.538,21.098 47.678,20.838 47.817,20.718C47.977,20.599 48.236,20.519 48.595,20.519L50.451,20.519C50.771,20.519 50.95,20.679 50.95,21.018C50.95,21.118 50.93,21.217 50.91,21.337C50.89,21.457 50.85,21.616 50.771,21.836L45.961,37.261C45.842,37.661 45.702,37.92 45.542,38.04C45.383,38.159 45.123,38.239 44.784,38.239L43.068,38.239C42.689,38.239 42.429,38.179 42.269,38.04C42.11,37.9 41.97,37.641 41.89,37.242L38.797,24.37L35.724,37.221C35.625,37.621 35.505,37.88 35.345,38.02C35.185,38.159 34.906,38.219 34.547,38.219L32.831,38.219L32.831,38.219ZM58.474,38.758C57.436,38.758 56.398,38.638 55.4,38.399C54.403,38.159 53.625,37.9 53.106,37.601C52.786,37.421 52.567,37.222 52.487,37.042C52.409,36.866 52.368,36.676 52.367,36.483L52.367,35.465C52.367,35.046 52.527,34.847 52.826,34.847C52.948,34.847 53.07,34.867 53.185,34.907C53.305,34.947 53.485,35.026 53.684,35.106C54.389,35.416 55.125,35.65 55.879,35.805C56.661,35.963 57.457,36.043 58.254,36.044C59.511,36.044 60.489,35.825 61.167,35.386C61.846,34.947 62.205,34.308 62.205,33.49C62.205,32.931 62.026,32.472 61.666,32.093C61.307,31.714 60.629,31.375 59.651,31.055L56.757,30.157C55.301,29.698 54.223,29.02 53.565,28.122C52.906,27.244 52.567,26.266 52.567,25.228C52.567,24.39 52.746,23.652 53.106,23.013C53.465,22.375 53.944,21.816 54.542,21.377C55.141,20.918 55.82,20.579 56.618,20.339C57.416,20.1 58.254,20 59.132,20C59.571,20 60.03,20.02 60.469,20.08C60.928,20.14 61.347,20.219 61.766,20.299C62.165,20.399 62.545,20.499 62.904,20.619C63.263,20.738 63.542,20.858 63.742,20.978C64.021,21.138 64.221,21.297 64.34,21.477C64.46,21.636 64.52,21.856 64.52,22.135L64.52,23.073C64.52,23.492 64.36,23.712 64.061,23.712C63.901,23.712 63.642,23.632 63.303,23.472C62.165,22.953 60.888,22.694 59.471,22.694C58.334,22.694 57.436,22.873 56.817,23.253C56.199,23.632 55.879,24.211 55.879,25.029C55.879,25.587 56.079,26.066 56.478,26.446C56.877,26.825 57.615,27.204 58.673,27.543L61.507,28.441C62.944,28.9 63.981,29.539 64.6,30.357C65.219,31.175 65.518,32.113 65.518,33.151C65.518,34.009 65.338,34.787 64.999,35.465C64.64,36.144 64.161,36.743 63.542,37.222C62.923,37.72 62.185,38.08 61.327,38.339C60.429,38.619 59.491,38.758 58.474,38.758Z" style="fill:rgb(107,107,107);fill-rule:nonzero;"/>
                        <path d="M62.245,48.456C55.68,53.306 46.141,55.88 37.94,55.88C26.445,55.88 16.088,51.629 8.266,44.565C7.647,44.006 8.206,43.248 8.944,43.687C17.405,48.596 27.842,51.569 38.638,51.569C45.922,51.569 53.924,50.053 61.287,46.94C62.385,46.441 63.323,47.658 62.245,48.456ZM64.979,45.343C64.141,44.266 59.431,44.824 57.296,45.084C56.658,45.164 56.558,44.605 57.137,44.186C60.888,41.552 67.055,42.31 67.773,43.188C68.491,44.086 67.573,50.252 64.061,53.206C63.522,53.665 63.004,53.425 63.243,52.827C64.041,50.851 65.817,46.401 64.979,45.343Z" style="fill:rgb(255,153,0);fill-rule:nonzero;"/>
                    </g>
                </g>
            </g>
        </g>
    </g>
</svg>
