<?xml version="1.0" encoding="UTF-8" standalone="no"?>
<!DOCTYPE svg PUBLIC "-//W3C//DTD SVG 1.1//EN" "http://www.w3.org/Graphics/SVG/1.1/DTD/svg11.dtd">
<svg width="100%" height="100%" viewBox="0 0 103 103" version="1.1" xmlns="http://www.w3.org/2000/svg" xmlns:xlink="http://www.w3.org/1999/xlink" xml:space="preserve" xmlns:serif="http://www.serif.com/" style="fill-rule:evenodd;clip-rule:evenodd;stroke-linejoin:round;stroke-miterlimit:2;">
    <g transform="matrix(1,0,0,1,67,-2913.56)">
        <g transform="matrix(1,0,0,1,-49,2114.56)">
            <g transform="matrix(2.01961,0,0,2.01961,-232.078,-204.745)">
                <path d="M157,509.75C157,502.713 151.287,497 144.25,497L118.75,497C111.713,497 106,502.713 106,509.75L106,535.25C106,542.287 111.713,548 118.75,548L144.25,548C151.287,548 157,542.287 157,535.25L157,509.75Z" style="fill:rgb(230,230,230);"/>
                <g transform="matrix(0.495146,0,0,0.495146,131.5,522.5)">
                    <g transform="matrix(1,0,0,1,-38,-38)">
                        <path d="M60.848,20.249L41.905,9.003C40.799,8.346 39.536,8 38.25,8C36.964,8 35.702,8.348 34.597,9.005L15.653,20.249C14.533,20.924 13.608,21.88 12.967,23.02C12.327,24.161 11.994,25.448 12,26.757L12,49.246C12,51.928 13.393,54.411 15.655,55.753L34.599,66.997C35.704,67.653 36.966,68 38.252,68C39.537,68 40.799,67.653 41.905,66.997L60.848,55.753C61.969,55.078 62.895,54.123 63.535,52.982C64.176,51.841 64.51,50.554 64.504,49.246L64.504,26.757C64.51,25.448 64.177,24.16 63.536,23.02C62.895,21.879 61.969,20.924 60.848,20.249ZM46.177,55.366L46.21,56.981C46.212,57.176 46.085,57.399 45.932,57.476L44.975,58.026C44.822,58.103 44.697,58.009 44.695,57.814L44.677,56.226C43.857,56.566 43.027,56.649 42.497,56.436C42.397,56.396 42.355,56.248 42.395,56.081L42.742,54.621C42.768,54.505 42.828,54.4 42.915,54.318C42.942,54.293 42.972,54.271 43.005,54.253C43.06,54.226 43.112,54.218 43.16,54.238C43.732,54.431 44.462,54.341 45.165,53.986C46.057,53.533 46.655,52.623 46.645,51.718C46.637,50.898 46.192,50.556 45.112,50.548C43.737,50.551 42.452,50.281 42.432,48.255C42.415,46.588 43.282,44.853 44.655,43.755L44.637,42.125C44.635,41.925 44.757,41.705 44.915,41.625L45.84,41.035C45.992,40.957 46.117,41.052 46.12,41.253L46.135,42.885C46.817,42.612 47.412,42.54 47.95,42.665C48.067,42.695 48.117,42.855 48.07,43.043L47.71,44.488C47.682,44.597 47.626,44.697 47.547,44.778C47.519,44.806 47.487,44.829 47.452,44.848C47.409,44.872 47.359,44.88 47.31,44.87C47.065,44.815 46.48,44.688 45.562,45.153C44.6,45.64 44.262,46.478 44.27,47.098C44.277,47.84 44.657,48.065 45.972,48.088C47.722,48.118 48.48,48.883 48.497,50.646C48.515,52.368 47.592,54.228 46.177,55.366ZM56.11,52.648C56.11,52.798 56.09,52.938 55.965,53.011L51.175,55.921C51.05,55.993 50.95,55.931 50.95,55.781L50.95,54.546C50.95,54.396 51.043,54.313 51.168,54.241L55.885,51.418C56.01,51.346 56.11,51.408 56.11,51.558L56.11,52.648ZM59.401,24.991L41.48,36.06C39.244,37.367 37.597,38.832 37.597,41.528L37.597,63.611C37.597,65.224 38.247,66.269 39.247,66.572C38.919,66.633 38.586,66.666 38.252,66.669C37.202,66.669 36.169,66.384 35.259,65.844L16.315,54.601C15.395,54.043 14.635,53.257 14.109,52.318C13.583,51.38 13.309,50.321 13.313,49.246L13.313,26.757C13.313,24.554 14.463,22.501 16.315,21.401L35.259,10.155C36.164,9.617 37.198,9.333 38.252,9.333C39.305,9.333 40.339,9.617 41.245,10.155L60.188,21.401C60.959,21.868 61.618,22.497 62.121,23.245C62.624,23.993 62.957,24.842 63.098,25.732C62.468,24.391 61.053,24.026 59.401,24.991Z" style="fill:rgb(139,139,139);fill-rule:nonzero;"/>
                    </g>
                </g>
            </g>
        </g>
    </g>
</svg>
