<?xml version="1.0" encoding="UTF-8" standalone="no"?>
<!DOCTYPE svg PUBLIC "-//W3C//DTD SVG 1.1//EN" "http://www.w3.org/Graphics/SVG/1.1/DTD/svg11.dtd">
<svg width="100%" height="100%" viewBox="0 0 103 103" version="1.1" xmlns="http://www.w3.org/2000/svg" xmlns:xlink="http://www.w3.org/1999/xlink" xml:space="preserve" xmlns:serif="http://www.serif.com/" style="fill-rule:evenodd;clip-rule:evenodd;stroke-linejoin:round;stroke-miterlimit:2;">
    <g transform="matrix(1,0,0,1,-195,-2913.56)">
        <g transform="matrix(1,0,0,1,-49,2114.56)">
            <g transform="matrix(2.01961,0,0,2.01961,29.9216,-204.745)">
                <path d="M157,509.75C157,502.713 151.287,497 144.25,497L118.75,497C111.713,497 106,502.713 106,509.75L106,535.25C106,542.287 111.713,548 118.75,548L144.25,548C151.287,548 157,542.287 157,535.25L157,509.75Z" style="fill:rgb(64,64,64);"/>
                <g transform="matrix(0.495146,0,0,0.495146,131.5,522.5)">
                    <g transform="matrix(1,0,0,1,-38,-38)">
                        <path d="M47.903,27.317L53.118,22.101L53.466,19.905C43.962,11.263 28.854,12.243 20.286,21.95C17.906,24.646 16.141,28.007 15.199,31.478L17.067,31.215L27.498,29.494L28.304,28.671C32.943,23.575 40.789,22.89 46.146,27.225L47.903,27.317Z" style="fill:rgb(234,67,53);fill-rule:nonzero;"/>
                        <path d="M60.548,31.324C59.349,26.91 56.888,22.941 53.466,19.905L46.146,27.225C47.672,28.472 48.894,30.048 49.721,31.836C50.549,33.624 50.959,35.577 50.922,37.546L50.922,38.846C54.52,38.846 57.437,41.763 57.437,45.36C57.437,48.959 54.52,51.802 50.922,51.802L37.874,51.802L36.593,53.193L36.593,61.007L37.874,62.233L50.922,62.233C60.281,62.306 67.927,54.852 68,45.493C68.021,42.7 67.352,39.945 66.052,37.473C64.752,35.001 62.861,32.889 60.548,31.324" style="fill:rgb(66,133,244);fill-rule:nonzero;"/>
                        <path d="M24.845,62.233L37.874,62.233L37.874,51.802L24.845,51.802C23.922,51.802 23.011,51.602 22.173,51.217L20.324,51.784L15.072,56.999L14.615,58.775C17.56,60.999 21.154,62.249 24.845,62.233Z" style="fill:rgb(52,168,83);fill-rule:nonzero;"/>
                        <path d="M24.845,28.396C15.486,28.452 7.945,36.085 8,45.443C8.016,48.022 8.62,50.564 9.766,52.874C10.912,55.184 12.57,57.202 14.615,58.775L22.173,51.217C18.894,49.735 17.437,45.877 18.918,42.598C20.399,39.319 24.259,37.861 27.537,39.343C28.982,39.995 30.139,41.153 30.792,42.598L38.35,35.039C36.764,32.966 34.719,31.287 32.376,30.134C30.033,28.982 27.456,28.387 24.845,28.396" style="fill:rgb(251,188,5);fill-rule:nonzero;"/>
                    </g>
                </g>
            </g>
        </g>
    </g>
</svg>
