<?xml version="1.0" encoding="UTF-8" standalone="no"?>
<!DOCTYPE svg PUBLIC "-//W3C//DTD SVG 1.1//EN" "http://www.w3.org/Graphics/SVG/1.1/DTD/svg11.dtd">
<svg width="100%" height="100%" viewBox="0 0 103 103" version="1.1" xmlns="http://www.w3.org/2000/svg" xmlns:xlink="http://www.w3.org/1999/xlink" xml:space="preserve" xmlns:serif="http://www.serif.com/" style="fill-rule:evenodd;clip-rule:evenodd;stroke-linejoin:round;stroke-miterlimit:2;">
    <g transform="matrix(1,0,0,1,-588,-2292.56)">
        <g transform="matrix(1,0,0,1,-49,2160.56)">
            <g transform="matrix(2.01961,0,0,2.01961,422.922,-871.745)">
                <path d="M157,509.75C157,502.713 151.287,497 144.25,497L118.75,497C111.713,497 106,502.713 106,509.75L106,535.25C106,542.287 111.713,548 118.75,548L144.25,548C151.287,548 157,542.287 157,535.25L157,509.75Z" style="fill:rgb(64,64,64);"/>
                <g transform="matrix(0.495146,0,0,0.495146,131.5,522.5)">
                    <g transform="matrix(1,0,0,1,-38,-38)">
                        <path d="M69.762,32.651C68.41,31.707 65.314,31.352 62.893,31.825C62.612,29.463 61.317,27.396 59.065,25.566L57.771,24.621L56.87,25.979C55.744,27.751 55.181,30.231 55.35,32.593C55.406,33.419 55.688,34.895 56.532,36.194C55.744,36.667 54.111,37.257 51.972,37.257L11.271,37.257L11.158,37.73C10.764,40.092 10.764,47.472 15.38,53.141C18.871,57.452 24.05,59.636 30.861,59.636C45.611,59.636 56.532,52.491 61.655,39.56C63.682,39.619 68.016,39.56 70.212,35.131C70.268,35.013 70.381,34.777 70.775,33.892L71,33.419L69.762,32.651ZM43.809,16L37.617,16L37.617,21.905L43.809,21.905L43.809,16ZM43.809,23.086L37.617,23.086L37.617,28.991L43.809,28.991L43.809,23.086L43.809,23.086ZM36.491,23.086L30.299,23.086L30.299,28.991L36.491,28.991L36.491,23.086L36.491,23.086ZM29.173,23.086L22.98,23.086L22.98,28.991L29.173,28.991L29.173,23.086L29.173,23.086ZM21.854,30.172L15.662,30.172L15.662,36.076L21.854,36.076L21.854,30.171L21.854,30.172ZM29.173,30.172L22.98,30.172L22.98,36.076L29.173,36.076L29.173,30.171L29.173,30.172ZM36.491,30.172L30.299,30.172L30.299,36.076L36.491,36.076L36.491,30.171L36.491,30.172ZM43.809,30.172L37.617,30.172L37.617,36.076L43.809,36.076L43.809,30.171L43.809,30.172ZM51.128,30.172L44.935,30.172L44.935,36.076L51.128,36.076L51.128,30.171L51.128,30.172Z" style="fill:rgb(35,150,237);fill-rule:nonzero;"/>
                    </g>
                </g>
            </g>
        </g>
    </g>
</svg>
