<?xml version="1.0" encoding="UTF-8" standalone="no"?>
<!DOCTYPE svg PUBLIC "-//W3C//DTD SVG 1.1//EN" "http://www.w3.org/Graphics/SVG/1.1/DTD/svg11.dtd">
<svg width="100%" height="100%" viewBox="0 0 103 103" version="1.1" xmlns="http://www.w3.org/2000/svg" xmlns:xlink="http://www.w3.org/1999/xlink" xml:space="preserve" xmlns:serif="http://www.serif.com/" style="fill-rule:evenodd;clip-rule:evenodd;stroke-linejoin:round;stroke-miterlimit:2;">
    <g transform="matrix(1,0,0,1,-1243,-2913.56)">
        <g transform="matrix(1,0,0,1,-49,2114.56)">
            <g transform="matrix(2.01961,0,0,2.01961,1077.92,-204.745)">
                <path d="M157,509.75C157,502.713 151.287,497 144.25,497L118.75,497C111.713,497 106,502.713 106,509.75L106,535.25C106,542.287 111.713,548 118.75,548L144.25,548C151.287,548 157,542.287 157,535.25L157,509.75Z" style="fill:rgb(64,64,64);"/>
                <g transform="matrix(0.0381262,0,0,0.0381262,131.5,522.5)">
                    <g transform="matrix(1,0,0,1,-500,-500)">
                        <path d="M899.13,303.22L925.85,234L924.7,229.72L660.36,299.38C688.54,258.6 678.85,225.9 678.85,225.9C678.85,225.9 594.44,279.81 530.59,278.39C466.74,276.97 446.18,260 348.28,291.16C250.38,322.32 222.72,418.16 194.35,438.71C165.98,459.26 77,526.32 77,526.32L77.19,527.52L157.4,502C157.4,502 135.4,522.75 88.63,585.77C88.63,585.77 87.81,585.02 86.45,583.77L86.52,584.2C86.52,584.2 124.12,641.59 161,631C165.3,629.666 169.467,627.939 173.45,625.84C188.3,634.11 207.69,642.24 229.1,644.48C219.468,633.07 210.589,621.044 202.52,608.48L212.52,601.97L211,603L241.57,614.22L238.19,585.49L238.49,585.3L268.49,596.3L264.75,570.17C268.55,568.17 272.36,566.3 276.15,564.54L307.46,446.1L437,357.84L426.72,383.73C400.47,448.29 351.17,463.54 351.17,463.54L330.6,471.34C315.29,489.43 308.86,493.88 303.6,554.59C315.93,551.48 327.72,550.76 338.4,553.59C393.73,568.49 412.89,635.17 397.99,653.59C394.26,658.21 385.38,666.11 374.17,675.36L351.67,675.36L351.38,693.55L349.07,695.35L326.23,695.35L325.94,713.1C323.94,714.64 321.94,716.15 319.94,717.62C298.47,718.07 271.29,699.35 271.29,699.35C271.29,716.35 285.48,742.62 285.48,742.62L287.99,741.4L285.86,743C285.86,743 343.32,781.31 379.49,767.12C411.67,754.51 494.94,688.84 566.83,657.77L784.37,600.45L813.06,526.14L647.28,569.85L647.28,503.09L841.75,451.85L870.44,377.53L647.28,436.33L647.28,369.58L899.13,303.22ZM504.31,444.69L555.93,431.09L556.62,433.68L540.52,475.4L487,489.5L504.31,444.69ZM522.13,534L468.63,548.1L485.92,503.29L537.54,489.69L538.23,492.28L522.13,534ZM591.84,519L538.33,533.1L555.63,488.3L607.25,474.69L607.94,477.28L591.84,519Z" style="fill:white;fill-rule:nonzero;"/>
                    </g>
                </g>
            </g>
        </g>
    </g>
</svg>
