<?xml version="1.0" encoding="UTF-8" standalone="no"?>
<!DOCTYPE svg PUBLIC "-//W3C//DTD SVG 1.1//EN" "http://www.w3.org/Graphics/SVG/1.1/DTD/svg11.dtd">
<svg width="100%" height="100%" viewBox="0 0 103 103" version="1.1" xmlns="http://www.w3.org/2000/svg" xmlns:xlink="http://www.w3.org/1999/xlink" xml:space="preserve" xmlns:serif="http://www.serif.com/" style="fill-rule:evenodd;clip-rule:evenodd;stroke-linejoin:round;stroke-miterlimit:2;">
    <g transform="matrix(1,0,0,1,-1243,-2292.56)">
        <g transform="matrix(1,0,0,1,-49,2160.56)">
            <g transform="matrix(2.01961,0,0,2.01961,1077.92,-871.745)">
                <path d="M157,509.75C157,502.713 151.287,497 144.25,497L118.75,497C111.713,497 106,502.713 106,509.75L106,535.25C106,542.287 111.713,548 118.75,548L144.25,548C151.287,548 157,542.287 157,535.25L157,509.75Z" style="fill:rgb(64,64,64);"/>
                <g transform="matrix(0.495146,0,0,0.495146,131.5,522.5)">
                    <g transform="matrix(1,0,0,1,-38,-38)">
                        <path d="M28,68C30.652,68 33.196,66.946 35.071,65.071C36.946,63.196 38,60.652 38,58L38,48L28,48C25.348,48 22.804,49.054 20.929,50.929C19.054,52.804 18,55.348 18,58C18,60.652 19.054,63.196 20.929,65.071C22.804,66.946 25.348,68 28,68Z" style="fill:rgb(10,207,131);fill-rule:nonzero;"/>
                        <path d="M18,38C18,35.348 19.054,32.804 20.929,30.929C22.804,29.054 25.348,28 28,28L38,28L38,48L28,48C25.348,48 22.804,46.946 20.929,45.071C19.054,43.196 18,40.652 18,38Z" style="fill:rgb(162,89,255);fill-rule:nonzero;"/>
                        <path d="M18,18C18,15.349 19.052,12.807 20.926,10.932C22.8,9.057 25.341,8.002 27.992,8L37.992,8L37.992,28L28,28C25.348,28 22.804,26.946 20.929,25.071C19.054,23.196 18,20.652 18,18Z" style="fill:rgb(242,78,30);fill-rule:nonzero;"/>
                        <path d="M38,8L48,8C50.652,8 53.196,9.054 55.071,10.929C56.946,12.804 58,15.348 58,18C58,20.652 56.946,23.196 55.071,25.071C53.196,26.946 50.652,28 48,28L38,28L38,8Z" style="fill:rgb(255,114,98);fill-rule:nonzero;"/>
                        <path d="M58,38C58,40.652 56.946,43.196 55.071,45.071C53.196,46.946 50.652,48 48,48C45.348,48 42.804,46.946 40.929,45.071C39.054,43.196 38,40.652 38,38C38,35.348 39.054,32.804 40.929,30.929C42.804,29.054 45.348,28 48,28C50.652,28 53.196,29.054 55.071,30.929C56.946,32.804 58,35.348 58,38Z" style="fill:rgb(26,188,254);fill-rule:nonzero;"/>
                    </g>
                </g>
            </g>
        </g>
    </g>
</svg>
