<?xml version="1.0" encoding="UTF-8" standalone="no"?>
<!DOCTYPE svg PUBLIC "-//W3C//DTD SVG 1.1//EN" "http://www.w3.org/Graphics/SVG/1.1/DTD/svg11.dtd">
<svg width="100%" height="100%" viewBox="0 0 103 103" version="1.1" xmlns="http://www.w3.org/2000/svg" xmlns:xlink="http://www.w3.org/1999/xlink" xml:space="preserve" xmlns:serif="http://www.serif.com/" style="fill-rule:evenodd;clip-rule:evenodd;stroke-linejoin:round;stroke-miterlimit:2;">
    <g transform="matrix(1,0,0,1,-1374,-2292.56)">
        <g transform="matrix(1,0,0,1,-49,2160.56)">
            <g transform="matrix(2.01961,0,0,2.01961,1208.92,-871.745)">
                <path d="M157,509.75C157,502.713 151.287,497 144.25,497L118.75,497C111.713,497 106,502.713 106,509.75L106,535.25C106,542.287 111.713,548 118.75,548L144.25,548C151.287,548 157,542.287 157,535.25L157,509.75Z" style="fill:rgb(64,64,64);"/>
                <g transform="matrix(0.495146,0,0,0.495146,131.5,522.5)">
                    <g transform="matrix(1,0,0,1,-38,-38)">
                        <path d="M44.449,29.671L38.444,35.258L32.871,24.018L35.755,17.553C36.505,16.24 37.675,16.255 38.406,17.553L44.449,29.671Z" style="fill:rgb(255,160,0);fill-rule:nonzero;"/>
                        <path d="M32.871,24.018L38.444,35.258L16,56.136L32.871,24.018Z" style="fill:rgb(245,127,23);fill-rule:nonzero;"/>
                        <path d="M51.018,21.13C52.09,20.099 53.2,20.451 53.483,21.912L59.326,55.859L39.961,67.484C39.286,67.859 37.486,68.02 37.486,68.02C37.486,68.02 35.847,67.825 35.222,67.458L16,56.136L51.018,21.13Z" style="fill:rgb(255,202,40);fill-rule:nonzero;"/>
                        <path d="M32.871,24.018L16.002,56.136L23.515,9.196C23.793,7.733 24.625,7.593 25.368,8.883L32.871,24.018Z" style="fill:rgb(255,160,0);fill-rule:nonzero;"/>
                    </g>
                </g>
            </g>
        </g>
    </g>
</svg>
