<?xml version="1.0" encoding="UTF-8" standalone="no"?>
<!DOCTYPE svg PUBLIC "-//W3C//DTD SVG 1.1//EN" "http://www.w3.org/Graphics/SVG/1.1/DTD/svg11.dtd">
<svg width="100%" height="100%" viewBox="0 0 103 103" version="1.1" xmlns="http://www.w3.org/2000/svg" xmlns:xlink="http://www.w3.org/1999/xlink" xml:space="preserve" xmlns:serif="http://www.serif.com/" style="fill-rule:evenodd;clip-rule:evenodd;stroke-linejoin:round;stroke-miterlimit:2;">
    <g transform="matrix(1,0,0,1,-1636,-2292.56)">
        <g transform="matrix(1,0,0,1,-49,2160.56)">
            <g transform="matrix(2.01961,0,0,2.01961,1470.92,-871.745)">
                <path d="M157,509.75C157,502.713 151.287,497 144.25,497L118.75,497C111.713,497 106,502.713 106,509.75L106,535.25C106,542.287 111.713,548 118.75,548L144.25,548C151.287,548 157,542.287 157,535.25L157,509.75Z" style="fill:rgb(64,64,64);"/>
                <g transform="matrix(0.495146,0,0,0.495146,131.5,522.5)">
                    <g transform="matrix(1,0,0,1,-32,-32)">
                        <g transform="matrix(0.061615,0,0,0.061615,-1.43082,-1.2754)">
                            <g>
                                <clipPath id="_clip1">
                                    <path d="M959.4,500L679.8,779.7L959.4,1059.4L639.9,1059.4L360.2,779.7L639.9,500L959.4,500ZM639.9,20.7L120.6,540L280.4,699.8L959.4,20.7L639.9,20.7Z"/>
                                </clipPath>
                                <g clip-path="url(#_clip1)">
                                    <path d="M360.3,779.7L520,939.5L959.4,500L639.9,500L360.3,779.7Z" style="fill:rgb(57,206,253);fill-rule:nonzero;"/>
                                </g>
                            </g>
                            <clipPath id="_clip2">
                                <path d="M959.4,500L679.8,779.7L959.4,1059.4L639.9,1059.4L360.2,779.7L639.9,500L959.4,500ZM639.9,20.7L120.6,540L280.4,699.8L959.4,20.7L639.9,20.7Z"/>
                            </clipPath>
                            <g clip-path="url(#_clip2)">
                                <path d="M639.9,20.7L959.4,20.7L280.4,699.8L120.6,540L639.9,20.7Z" style="fill:rgb(57,206,253);fill-rule:nonzero;"/>
                            </g>
                            <clipPath id="_clip3">
                                <path d="M959.4,500L679.8,779.7L959.4,1059.4L639.9,1059.4L360.2,779.7L639.9,500L959.4,500ZM639.9,20.7L120.6,540L280.4,699.8L959.4,20.7L639.9,20.7Z"/>
                            </clipPath>
                            <g clip-path="url(#_clip3)">
                                <path d="M520,939.5L639.9,1059.3L959.4,1059.3L679.8,779.7L520,939.5Z" style="fill:rgb(3,86,155);fill-rule:nonzero;"/>
                            </g>
                            <clipPath id="_clip4">
                                <path d="M959.4,500L679.8,779.7L959.4,1059.4L639.9,1059.4L360.2,779.7L639.9,500L959.4,500ZM639.9,20.7L120.6,540L280.4,699.8L959.4,20.7L639.9,20.7Z"/>
                            </clipPath>
                            <g clip-path="url(#_clip4)">
                                <path d="M757,857.4L679.8,779.7L520,939.5L757,857.4Z" style="fill:url(#_Linear5);fill-rule:nonzero;"/>
                            </g>
                            <g>
                                <clipPath id="_clip6">
                                    <path d="M959.4,500L679.8,779.7L959.4,1059.4L639.9,1059.4L360.2,779.7L639.9,500L959.4,500ZM639.9,20.7L120.6,540L280.4,699.8L959.4,20.7L639.9,20.7Z"/>
                                </clipPath>
                                <g clip-path="url(#_clip6)">
                                    <path d="M360.282,779.645L520.086,619.84L679.9,779.645L520.086,939.45L360.282,779.645Z" style="fill:rgb(22,185,253);fill-rule:nonzero;"/>
                                </g>
                            </g>
                            <path d="M959.4,500L679.8,779.7L959.4,1059.4L639.9,1059.4L360.2,779.7L639.9,500L959.4,500ZM639.9,20.7L120.6,540L280.4,699.8L959.4,20.7L639.9,20.7Z" style="fill:url(#_Radial7);fill-rule:nonzero;"/>
                        </g>
                    </g>
                </g>
            </g>
        </g>
    </g>
    <defs>
        <linearGradient id="_Linear5" x1="0" y1="0" x2="1" y2="0" gradientUnits="userSpaceOnUse" gradientTransform="matrix(119.015,-119.015,119.015,119.015,566.635,970.339)"><stop offset="0" style="stop-color:rgb(26,35,126);stop-opacity:0.4"/><stop offset="1" style="stop-color:rgb(26,35,126);stop-opacity:0"/></linearGradient>
        <radialGradient id="_Radial7" cx="0" cy="0" r="1" gradientUnits="userSpaceOnUse" gradientTransform="matrix(1270.72,0,0,-1270.72,144.165,91.4947)"><stop offset="0" style="stop-color:white;stop-opacity:0.1"/><stop offset="1" style="stop-color:white;stop-opacity:0"/></radialGradient>
    </defs>
</svg>
