<?xml version="1.0" encoding="UTF-8" standalone="no"?>
<!DOCTYPE svg PUBLIC "-//W3C//DTD SVG 1.1//EN" "http://www.w3.org/Graphics/SVG/1.1/DTD/svg11.dtd">
<svg width="100%" height="100%" viewBox="0 0 103 103" version="1.1" xmlns="http://www.w3.org/2000/svg" xmlns:xlink="http://www.w3.org/1999/xlink" xml:space="preserve" xmlns:serif="http://www.serif.com/" style="fill-rule:evenodd;clip-rule:evenodd;stroke-linejoin:round;stroke-miterlimit:2;">
    <g transform="matrix(1,0,0,1,-1505,-2913.56)">
        <g transform="matrix(1,0,0,1,-49,2114.56)">
            <g transform="matrix(2.01961,0,0,2.01961,1339.92,-204.745)">
                <g>
                    <path d="M157,509.75C157,502.713 151.287,497 144.25,497L118.75,497C111.713,497 106,502.713 106,509.75L106,535.25C106,542.287 111.713,548 118.75,548L144.25,548C151.287,548 157,542.287 157,535.25L157,509.75Z" style="fill:rgb(64,64,64);"/>
                </g>
                <g transform="matrix(0.495146,0,0,0.495146,131.5,522.5)">
                    <g transform="matrix(1,0,0,1,-38,-38)">
                        <path d="M42.787,14.867L55.109,21.982C55.465,21.605 55.873,21.282 56.321,21.022C58.862,19.561 62.154,20.445 63.621,22.982C65.081,25.522 64.197,28.814 61.661,30.281C61.216,30.537 60.737,30.728 60.238,30.848L60.238,45.082C60.732,45.202 61.206,45.392 61.646,45.645C63.302,46.592 64.328,48.36 64.328,50.268C64.328,51.208 64.079,52.132 63.606,52.945C62.136,55.5 58.861,56.372 56.306,54.903C55.811,54.619 55.365,54.257 54.985,53.831L42.738,60.9C42.917,61.441 43.008,62.007 43.008,62.577C43.008,65.508 40.598,67.921 37.667,67.925C37.666,67.925 37.664,67.925 37.663,67.925C34.736,67.925 32.327,65.516 32.327,62.589C32.327,62.587 32.327,62.586 32.327,62.584C32.327,62.059 32.402,61.552 32.542,61.073L20.223,53.961C19.871,54.33 19.469,54.646 19.028,54.902C16.458,56.372 13.198,55.499 11.728,52.943C10.268,50.402 11.152,47.111 13.688,45.643C14.128,45.39 14.601,45.201 15.095,45.081L15.095,30.847C14.596,30.727 14.117,30.537 13.672,30.281C11.116,28.811 10.244,25.537 11.713,22.981C13.183,20.426 16.457,19.553 19.013,21.023C19.458,21.281 19.864,21.602 20.219,21.976L32.544,14.859C32.399,14.366 32.325,13.855 32.326,13.341C32.326,13.339 32.326,13.338 32.326,13.336C32.326,10.409 34.735,8 37.662,8L37.671,8C40.598,8 43.007,10.409 43.007,13.336C43.007,13.337 43.007,13.339 43.007,13.34C43.007,13.871 42.93,14.384 42.787,14.867ZM41.503,17.059L53.854,24.191C53.457,25.579 53.64,27.071 54.362,28.322C55.084,29.579 56.29,30.488 57.698,30.835L57.698,45.087C57.628,45.104 57.56,45.122 57.491,45.142L41.36,17.202C41.41,17.155 41.457,17.108 41.504,17.06L41.503,17.059ZM33.977,17.205L17.846,45.145C17.776,45.125 17.706,45.106 17.636,45.089L17.636,30.835C19.044,30.488 20.249,29.579 20.971,28.322C21.694,27.068 21.877,25.573 21.477,24.182L33.825,17.054C33.875,17.105 33.925,17.156 33.977,17.205ZM39.159,18.471L55.287,46.404C54.547,47.111 54.025,48.016 53.784,49.011L21.55,49.011C21.43,48.517 21.24,48.043 20.987,47.603C20.732,47.163 20.416,46.762 20.048,46.411L36.179,18.472C37.152,18.753 38.186,18.753 39.159,18.471ZM41.616,58.987L53.888,51.902C53.851,51.786 53.818,51.67 53.789,51.552L21.543,51.552C21.526,51.621 21.508,51.69 21.488,51.758L33.819,58.878C34.825,57.832 36.216,57.241 37.667,57.244C39.17,57.241 40.606,57.875 41.617,58.987L41.616,58.987Z" style="fill:rgb(229,53,171);"/>
                    </g>
                </g>
            </g>
        </g>
    </g>
</svg>
