<?xml version="1.0" encoding="UTF-8" standalone="no"?>
<!DOCTYPE svg PUBLIC "-//W3C//DTD SVG 1.1//EN" "http://www.w3.org/Graphics/SVG/1.1/DTD/svg11.dtd">
<svg width="100%" height="100%" viewBox="0 0 103 103" version="1.1" xmlns="http://www.w3.org/2000/svg" xmlns:xlink="http://www.w3.org/1999/xlink" xml:space="preserve" xmlns:serif="http://www.serif.com/" style="fill-rule:evenodd;clip-rule:evenodd;stroke-linejoin:round;stroke-miterlimit:2;">
    <g transform="matrix(1,0,0,1,-1767,-2913.56)">
        <g transform="matrix(1,0,0,1,-49,2114.56)">
            <g transform="matrix(2.01961,0,0,2.01961,1601.92,-204.745)">
                <path d="M157,509.75C157,502.713 151.287,497 144.25,497L118.75,497C111.713,497 106,502.713 106,509.75L106,535.25C106,542.287 111.713,548 118.75,548L144.25,548C151.287,548 157,542.287 157,535.25L157,509.75Z" style="fill:rgb(64,64,64);"/>
                <g transform="matrix(0.495146,0,0,0.495146,131.5,522.5)">
                    <g transform="matrix(1,0,0,1,-38,-38)">
                        <path d="M59,20L55.083,63.195L37.473,68L19.913,63.202L16,20L59,20Z" style="fill:rgb(228,77,38);fill-rule:nonzero;"/>
                        <path d="M37,64L51.572,60.098L55,23L37,23L37,64Z" style="fill:rgb(241,101,41);fill-rule:nonzero;"/>
                        <path d="M29.666,34.291L37,34.291L37,29L24,29L24.124,30.42L25.398,45L37,45L37,39.709L30.14,39.709L29.666,34.291ZM31.035,47L26,47L26.703,55.81L36.977,59L37,58.993L37,53.156L36.978,53.162L31.392,51.475L31.035,47Z" style="fill:rgb(235,235,235);fill-rule:nonzero;"/>
                        <path d="M20,8L22.745,8L22.745,10.642L25.255,10.642L25.255,8L28,8L28,16L25.255,16L25.255,13.321L22.745,13.321L22.745,16L20,16L20,8ZM31.232,10.653L29,10.653L29,8L36,8L36,10.653L33.767,10.653L33.767,16L31.232,16L31.232,10.653ZM38,8L40.786,8L42.5,10.811L44.213,8L47,8L47,16L44.339,16L44.339,12.035L42.5,14.879L42.454,14.879L40.614,12.035L40.614,16L38,16L38,8ZM48,8L50.91,8L50.91,13.356L55,13.356L55,16L48,16L48,8Z" style="fill:rgb(139,139,139);fill-rule:nonzero;"/>
                        <path d="M37,44.497L43.887,44.497L43.237,51.627L37,53.28L37,59L48.465,55.877L48.549,54.948L49.864,40.476L50,39L37,39L37,44.497ZM37,29L37,34L50.5,34L50.612,32.876L50.867,30.341L51,29L37,29Z" style="fill:white;fill-rule:nonzero;"/>
                    </g>
                </g>
            </g>
        </g>
    </g>
</svg>
