<?xml version="1.0" encoding="UTF-8" standalone="no"?>
<!DOCTYPE svg PUBLIC "-//W3C//DTD SVG 1.1//EN" "http://www.w3.org/Graphics/SVG/1.1/DTD/svg11.dtd">
<svg width="100%" height="100%" viewBox="0 0 103 103" version="1.1" xmlns="http://www.w3.org/2000/svg" xmlns:xlink="http://www.w3.org/1999/xlink" xml:space="preserve" xmlns:serif="http://www.serif.com/" style="fill-rule:evenodd;clip-rule:evenodd;stroke-linejoin:round;stroke-miterlimit:2;">
    <g transform="matrix(1,0,0,1,-457,-2913.56)">
        <g transform="matrix(1,0,0,1,-49,2114.56)">
            <g transform="matrix(2.01961,0,0,2.01961,291.922,-204.745)">
                <path d="M157,509.75C157,502.713 151.287,497 144.25,497L118.75,497C111.713,497 106,502.713 106,509.75L106,535.25C106,542.287 111.713,548 118.75,548L144.25,548C151.287,548 157,542.287 157,535.25L157,509.75Z" style="fill:rgb(247,223,30);"/>
                <g transform="matrix(0.495146,0,0,0.495146,131.5,522.5)">
                    <g transform="matrix(1,0,0,1,-38,-38)">
                        <clipPath id="_clip1">
                            <rect x="0" y="0" width="76" height="76"/>
                        </clipPath>
                        <g clip-path="url(#_clip1)">
                            <g transform="matrix(1.26667,0,0,1.26667,-10.1333,-10.1333)">
                                <rect x="8" y="8" width="60" height="60" style="fill:rgb(247,223,30);fill-rule:nonzero;"/>
                                <path d="M23.776,58.14L28.368,55.362C29.254,56.932 30.059,58.261 31.992,58.261C33.845,58.261 35.013,57.536 35.013,54.717L35.013,35.546L40.652,35.546L40.652,54.797C40.652,60.637 37.228,63.295 32.234,63.295C27.723,63.295 25.105,60.959 23.776,58.14" style="fill-rule:nonzero;"/>
                                <path d="M43.714,57.536L48.305,54.878C49.514,56.852 51.085,58.302 53.863,58.302C56.2,58.302 57.69,57.133 57.69,55.522C57.69,53.589 56.159,52.904 53.582,51.777L52.172,51.172C48.104,49.441 45.406,47.266 45.406,42.675C45.406,38.446 48.628,35.223 53.662,35.223C57.247,35.223 59.825,36.472 61.677,39.734L57.287,42.554C56.32,40.822 55.273,40.138 53.662,40.138C52.011,40.138 50.964,41.185 50.964,42.554C50.964,44.245 52.011,44.931 54.427,45.978L55.837,46.582C60.63,48.636 63.328,50.73 63.328,55.442C63.328,60.517 59.341,63.296 53.984,63.296C48.748,63.296 45.365,60.799 43.714,57.536" style="fill-rule:nonzero;"/>
                            </g>
                        </g>
                    </g>
                </g>
            </g>
        </g>
    </g>
</svg>
