<?xml version="1.0" encoding="UTF-8" standalone="no"?>
<!DOCTYPE svg PUBLIC "-//W3C//DTD SVG 1.1//EN" "http://www.w3.org/Graphics/SVG/1.1/DTD/svg11.dtd">
<svg width="100%" height="100%" viewBox="0 0 103 103" version="1.1" xmlns="http://www.w3.org/2000/svg" xmlns:xlink="http://www.w3.org/1999/xlink" xml:space="preserve" xmlns:serif="http://www.serif.com/" style="fill-rule:evenodd;clip-rule:evenodd;stroke-linejoin:round;stroke-miterlimit:2;">
    <g transform="matrix(1,0,0,1,-588,-2913.56)">
        <g transform="matrix(1,0,0,1,-49,2114.56)">
            <g transform="matrix(2.01961,0,0,2.01961,422.922,-204.745)">
                <path d="M157,509.75C157,502.713 151.287,497 144.25,497L118.75,497C111.713,497 106,502.713 106,509.75L106,535.25C106,542.287 111.713,548 118.75,548L144.25,548C151.287,548 157,542.287 157,535.25L157,509.75Z" style="fill:rgb(230,230,230);"/>
                <g transform="matrix(0.495146,0,0,0.495146,199.685,525.223)">
                    <clipPath id="_clip1">
                        <rect x="-169.5" y="-40.5" width="63.585" height="70"/>
                    </clipPath>
                    <g clip-path="url(#_clip1)">
                        <g transform="matrix(1,0,0,1,-169.5,-40.5)">
                            <g>
                                <g id="svg_1">
                                    <g id="svg_2">
                                        <g id="svg_3">
                                            <path id="svg_4" d="M76.621,68.879L76.621,37.472L84.251,37.472L84.251,62.269L96.405,62.269L96.405,68.878L76.621,68.878L76.621,68.879Z" style="fill:rgb(44,60,105);fill-rule:nonzero;"/>
                                        </g>
                                    </g>
                                </g>
                                <g id="svg_16">
                                    <path id="svg_17" d="M46.49,37.568L38.449,37.568L38.449,33.44C38.449,30.143 35.766,27.461 32.469,27.461C29.172,27.461 26.49,30.144 26.49,33.44L26.49,37.568L18.45,37.568L18.45,33.44C18.45,25.71 24.739,19.42 32.47,19.42C40.201,19.42 46.49,25.709 46.49,33.44L46.49,37.568Z" style="fill:rgb(249,161,29);fill-rule:nonzero;"/>
                                </g>
                                <path id="svg_18" d="M49.732,37.568L15.207,37.568C13.733,37.568 12.527,38.774 12.527,40.248L12.527,65.788C12.527,67.262 13.733,68.468 15.207,68.468L49.732,68.468C51.206,68.468 52.412,67.262 52.412,65.788L52.412,40.248C52.412,38.774 51.206,37.568 49.732,37.568ZM34.219,54.337L34.219,57.798C34.219,58.764 33.435,59.547 32.47,59.547C31.505,59.547 30.721,58.763 30.721,57.798L30.721,54.338C29.645,53.727 28.918,52.574 28.918,51.248C28.918,49.286 30.509,47.696 32.47,47.696C34.432,47.696 36.022,49.287 36.022,51.248C36.022,52.573 35.295,53.726 34.219,54.337L34.219,54.337Z" style="fill:rgb(44,60,105);fill-rule:nonzero;"/>
                                <path id="svg_19" d="M11.707,33.76L3.376,33.76C2.025,33.76 0.93,32.665 0.93,31.314C0.93,29.963 2.025,28.868 3.376,28.868L11.707,28.868C13.058,28.868 14.153,29.963 14.153,31.314C14.153,32.665 13.057,33.76 11.707,33.76Z" style="fill:rgb(249,161,29);fill-rule:nonzero;"/>
                                <path id="svg_20" d="M17.575,20.655C17.029,20.655 16.478,20.473 16.023,20.098L9.433,14.679C8.39,13.821 8.239,12.28 9.098,11.236C9.956,10.193 11.497,10.042 12.541,10.9L19.131,16.319C20.174,17.177 20.325,18.718 19.466,19.762C18.983,20.351 18.282,20.655 17.575,20.655L17.575,20.655Z" style="fill:rgb(249,161,29);fill-rule:nonzero;"/>
                                <path id="svg_21" d="M32.469,14.895C31.118,14.895 30.023,13.8 30.023,12.449L30.023,4.052C30.023,2.701 31.118,1.606 32.469,1.606C33.82,1.606 34.915,2.701 34.915,4.052L34.915,12.449C34.915,13.8 33.82,14.895 32.469,14.895Z" style="fill:rgb(249,161,29);fill-rule:nonzero;"/>
                                <g id="svg_22">
                                    <g id="svg_23">
                                        <path id="svg_24" d="M47.363,20.655C46.656,20.655 45.956,20.351 45.472,19.762C44.614,18.719 44.764,17.177 45.807,16.319L52.397,10.9C53.441,10.042 54.982,10.193 55.84,11.236C56.698,12.279 56.548,13.821 55.505,14.679L48.915,20.098C48.46,20.473 47.91,20.655 47.363,20.655Z" style="fill:rgb(249,161,29);fill-rule:nonzero;"/>
                                    </g>
                                </g>
                                <path id="svg_25" d="M61.563,33.76L53.153,33.76C51.802,33.76 50.707,32.665 50.707,31.314C50.707,29.963 51.802,28.868 53.153,28.868L61.563,28.868C62.914,28.868 64.009,29.963 64.009,31.314C64.009,32.665 62.914,33.76 61.563,33.76Z" style="fill:rgb(249,161,29);fill-rule:nonzero;"/>
                            </g>
                        </g>
                    </g>
                </g>
            </g>
        </g>
    </g>
</svg>
