<?xml version="1.0" encoding="UTF-8" standalone="no"?>
<!DOCTYPE svg PUBLIC "-//W3C//DTD SVG 1.1//EN" "http://www.w3.org/Graphics/SVG/1.1/DTD/svg11.dtd">
<svg width="100%" height="100%" viewBox="0 0 103 103" version="1.1" xmlns="http://www.w3.org/2000/svg" xmlns:xlink="http://www.w3.org/1999/xlink" xml:space="preserve" xmlns:serif="http://www.serif.com/" style="fill-rule:evenodd;clip-rule:evenodd;stroke-linejoin:round;stroke-miterlimit:2;">
    <g transform="matrix(1,0,0,1,-981,-2292.56)">
        <g transform="matrix(1,0,0,1,-49,2160.56)">
            <g transform="matrix(2.01961,0,0,2.01961,815.922,-871.745)">
                <path d="M157,509.75C157,502.713 151.287,497 144.25,497L118.75,497C111.713,497 106,502.713 106,509.75L106,535.25C106,542.287 111.713,548 118.75,548L144.25,548C151.287,548 157,542.287 157,535.25L157,509.75Z" style="fill:rgb(64,64,64);"/>
                <g transform="matrix(0.0297087,0,0,0.0297087,131.5,522.5)">
                    <g transform="matrix(1,0,0,1,-500,-500)">
                        <clipPath id="_clip1">
                            <rect x="0" y="0" width="1000" height="1000"/>
                        </clipPath>
                        <g clip-path="url(#_clip1)">
                            <path d="M467.253,0.269C465.103,0.465 458.26,1.149 452.102,1.637C310.068,14.441 177.028,91.067 92.766,208.841C45.846,274.325 15.836,348.605 4.497,427.284C0.489,454.748 0,462.86 0,500.098C0,537.336 0.489,545.448 4.497,572.912C31.672,760.666 165.298,918.414 346.53,976.861C378.983,987.319 413.196,994.453 452.102,998.754C467.253,1000.42 532.747,1000.42 547.898,998.754C615.054,991.326 671.945,974.71 728.055,946.073C736.657,941.675 738.319,940.502 737.146,939.525C736.364,938.939 699.707,889.777 655.718,830.352L575.758,722.353L475.562,574.085C420.43,492.572 375.073,425.915 374.682,425.915C374.291,425.818 373.9,491.693 373.705,572.13C373.412,712.97 373.314,718.639 371.554,721.962C369.013,726.751 367.058,728.706 362.952,730.856C359.824,732.42 357.087,732.713 342.327,732.713L325.415,732.713L320.919,729.878C317.986,728.021 315.836,725.578 314.37,722.744L312.317,718.345L312.512,522.382L312.805,326.321L315.836,322.509C317.4,320.457 320.723,317.818 323.069,316.547C327.077,314.592 328.641,314.397 345.552,314.397C365.494,314.397 368.817,315.179 373.998,320.848C375.464,322.411 429.717,404.12 494.624,502.541C559.531,600.963 648.289,735.352 691.887,801.324L771.065,921.248L775.073,918.609C810.557,895.543 848.094,862.703 877.81,828.495C941.056,755.877 981.818,667.326 995.503,572.912C999.511,545.448 1000,537.336 1000,500.098C1000,462.86 999.511,454.748 995.503,427.284C968.328,239.53 834.702,81.782 653.47,23.335C621.505,12.975 587.488,5.84 549.365,1.54C539.98,0.562 475.367,-0.513 467.253,0.269ZM671.945,302.668C676.637,305.014 680.45,309.51 681.818,314.201C682.6,316.743 682.796,371.085 682.6,493.549L682.307,669.281L651.32,621.781L620.235,574.281L620.235,446.538C620.235,363.95 620.626,317.525 621.212,315.277C622.776,309.803 626.197,305.503 630.89,302.962C634.897,300.909 636.364,300.714 651.711,300.714C666.178,300.714 668.719,300.909 671.945,302.668Z" style="fill:white;fill-rule:nonzero;"/>
                        </g>
                    </g>
                </g>
            </g>
        </g>
    </g>
</svg>
