<?xml version="1.0" encoding="UTF-8" standalone="no"?>
<!DOCTYPE svg PUBLIC "-//W3C//DTD SVG 1.1//EN" "http://www.w3.org/Graphics/SVG/1.1/DTD/svg11.dtd">
<svg width="100%" height="100%" viewBox="0 0 103 103" version="1.1" xmlns="http://www.w3.org/2000/svg" xmlns:xlink="http://www.w3.org/1999/xlink" xml:space="preserve" xmlns:serif="http://www.serif.com/" style="fill-rule:evenodd;clip-rule:evenodd;stroke-linejoin:round;stroke-miterlimit:2;">
    <g transform="matrix(1,0,0,1,-1898,-2913.56)">
        <g transform="matrix(1,0,0,1,-49,2114.56)">
            <g transform="matrix(2.01961,0,0,2.01961,1732.92,-204.745)">
                <path d="M157,509.75C157,502.713 151.287,497 144.25,497L118.75,497C111.713,497 106,502.713 106,509.75L106,535.25C106,542.287 111.713,548 118.75,548L144.25,548C151.287,548 157,542.287 157,535.25L157,509.75Z" style="fill:rgb(64,64,64);"/>
                <g transform="matrix(1.09274,0,0,1.09274,168.141,522.5)">
                    <clipPath id="_clip1">
                        <rect x="-45" y="-14.5" width="22.938" height="29"/>
                    </clipPath>
                    <g clip-path="url(#_clip1)">
                        <g transform="matrix(1,0,0,1,-45,-14.5)">
                            <clipPath id="_clip2">
                                <rect x="0" y="0" width="90" height="29"/>
                            </clipPath>
                            <g clip-path="url(#_clip2)">
                                <path d="M0.21,19.508C-0.066,19.073 -0.07,18.519 0.199,18.08L10.328,1.557C10.892,0.638 12.252,0.719 12.703,1.698L21.957,21.771C22.3,22.516 21.905,23.392 21.119,23.628L6.725,27.946C6.146,28.12 5.522,27.887 5.198,27.376L0.21,19.508ZM11.497,6.388C11.595,5.902 12.261,5.832 12.457,6.287L18.84,21.057C18.96,21.335 18.811,21.656 18.52,21.743L8.575,24.712C8.209,24.821 7.859,24.501 7.934,24.127L11.497,6.388ZM48.495,21.637L51.323,21.637L51.323,11.272L48.495,11.272L48.495,21.637ZM48.374,8.593C48.374,7.672 48.888,7.212 49.914,7.212C50.939,7.212 51.453,7.672 51.453,8.593C51.453,9.032 51.324,9.373 51.068,9.618C50.811,9.862 50.427,9.984 49.914,9.984C48.888,9.984 48.374,9.52 48.374,8.593ZM87.171,16.835L86.077,16.872C85.255,16.897 84.643,17.046 84.241,17.317C83.839,17.59 83.639,18.003 83.639,18.56C83.639,19.357 84.096,19.756 85.011,19.756C85.666,19.756 86.19,19.567 86.582,19.19C86.974,18.813 87.171,18.313 87.171,17.688L87.171,16.835ZM88.005,21.638L87.458,20.228L87.384,20.228C86.908,20.828 86.418,21.244 85.914,21.476C85.411,21.707 84.754,21.823 83.945,21.823C82.949,21.823 82.166,21.539 81.594,20.97C81.023,20.402 80.737,19.592 80.737,18.541C80.737,17.441 81.121,16.63 81.891,16.108C82.661,15.585 83.821,15.296 85.372,15.241L87.171,15.185L87.171,14.731C87.171,13.68 86.633,13.155 85.558,13.155C84.729,13.155 83.756,13.405 82.637,13.906L81.701,11.996C82.894,11.372 84.217,11.059 85.669,11.059C87.06,11.059 88.126,11.362 88.868,11.968C89.609,12.574 89.98,13.495 89.98,14.731L89.98,21.638L88.005,21.638ZM72.48,21.638L69.652,21.638L69.652,15.584C69.652,14.836 69.527,14.275 69.277,13.901C69.027,13.527 68.633,13.34 68.095,13.34C67.372,13.34 66.847,13.606 66.519,14.137C66.191,14.669 66.028,15.544 66.028,16.761L66.028,21.638L63.2,21.638L63.2,11.273L65.36,11.273L65.74,12.598L65.898,12.598C66.176,12.123 66.578,11.75 67.103,11.481C67.628,11.212 68.231,11.078 68.911,11.078C70.462,11.078 71.513,11.585 72.063,12.598L72.313,12.598C72.592,12.116 73.001,11.742 73.542,11.477C74.083,11.211 74.693,11.078 75.373,11.078C76.547,11.078 77.436,11.379 78.038,11.982C78.641,12.585 78.942,13.55 78.942,14.879L78.942,21.638L76.105,21.638L76.105,15.584C76.105,14.836 75.98,14.275 75.73,13.901C75.479,13.527 75.085,13.34 74.548,13.34C73.856,13.34 73.338,13.587 72.995,14.082C72.652,14.576 72.48,15.361 72.48,16.436L72.48,21.638ZM60.17,20.989C60.909,20.433 61.278,19.623 61.278,18.56C61.278,18.047 61.189,17.605 61.009,17.234C60.83,16.863 60.552,16.536 60.175,16.251C59.798,15.967 59.205,15.661 58.395,15.333C57.486,14.969 56.898,14.693 56.629,14.508C56.36,14.323 56.225,14.104 56.225,13.85C56.225,13.399 56.643,13.173 57.477,13.173C57.947,13.173 58.407,13.245 58.858,13.386C59.309,13.529 59.795,13.711 60.314,13.933L61.167,11.894C59.986,11.35 58.772,11.078 57.523,11.078C56.213,11.078 55.201,11.33 54.487,11.834C53.773,12.337 53.416,13.05 53.416,13.97C53.416,14.508 53.501,14.961 53.671,15.329C53.841,15.697 54.113,16.023 54.487,16.307C54.861,16.591 55.447,16.9 56.244,17.234C56.8,17.469 57.245,17.674 57.579,17.851C57.913,18.027 58.148,18.185 58.284,18.323C58.42,18.462 58.488,18.643 58.488,18.866C58.488,19.459 57.974,19.756 56.948,19.756C56.448,19.756 55.868,19.672 55.21,19.505C54.552,19.338 53.96,19.132 53.435,18.884L53.435,21.221C53.898,21.418 54.396,21.568 54.928,21.67C55.459,21.772 56.101,21.823 56.856,21.823C58.327,21.823 59.431,21.545 60.17,20.989ZM46.995,11.161C46.741,11.106 46.423,11.078 46.04,11.078C45.397,11.078 44.802,11.256 44.255,11.611C43.708,11.967 43.274,12.435 42.952,13.015L42.814,13.015L42.396,11.273L40.255,11.273L40.255,21.638L43.082,21.638L43.082,16.362C43.082,15.528 43.334,14.879 43.838,14.415C44.342,13.952 45.045,13.72 45.947,13.72C46.275,13.72 46.553,13.751 46.782,13.813L46.995,11.161ZM31.932,14.462L32.877,14.462C33.761,14.462 34.422,14.287 34.861,13.938C35.3,13.589 35.52,13.08 35.52,12.413C35.52,11.739 35.336,11.242 34.968,10.92C34.6,10.599 34.024,10.438 33.239,10.438L31.932,10.438L31.932,14.462ZM38.421,12.311C38.421,13.77 37.966,14.885 37.054,15.658C36.142,16.43 34.846,16.816 33.165,16.816L31.932,16.816L31.932,21.638L29.058,21.638L29.058,8.083L33.387,8.083C35.032,8.083 36.281,8.437 37.138,9.145C37.994,9.853 38.421,10.908 38.421,12.311Z" style="fill:rgb(247,250,252);"/>
                            </g>
                        </g>
                    </g>
                </g>
            </g>
        </g>
    </g>
</svg>
