<?xml version="1.0" encoding="UTF-8" standalone="no"?>
<!DOCTYPE svg PUBLIC "-//W3C//DTD SVG 1.1//EN" "http://www.w3.org/Graphics/SVG/1.1/DTD/svg11.dtd">
<svg width="100%" height="100%" viewBox="0 0 103 103" version="1.1" xmlns="http://www.w3.org/2000/svg" xmlns:xlink="http://www.w3.org/1999/xlink" xml:space="preserve" xmlns:serif="http://www.serif.com/" style="fill-rule:evenodd;clip-rule:evenodd;">
    <g transform="matrix(1,0,0,1,-850,-2913.56)">
        <g transform="matrix(1,0,0,1,-49,2114.56)">
            <g transform="matrix(2.01961,0,0,2.01961,684.922,-204.745)">
                <path d="M157,509.75C157,502.713 151.287,497 144.25,497L118.75,497C111.713,497 106,502.713 106,509.75L106,535.25C106,542.287 111.713,548 118.75,548L144.25,548C151.287,548 157,542.287 157,535.25L157,509.75Z" style="fill:rgb(64,64,64);"/>
                <g transform="matrix(0.495146,0,0,0.495146,131.5,522.5)">
                    <g transform="matrix(1,0,0,1,-32,-32)">
                        <clipPath id="_clip1">
                            <rect x="0" y="0" width="64" height="64"/>
                        </clipPath>
                        <g clip-path="url(#_clip1)">
                            <g transform="matrix(0.05696,0,0,0.05696,1.29549,4.87652)">
                                <circle cx="539.058" cy="475.256" r="100.334" style="fill:rgb(0,216,255);"/>
                                <g>
                                    <path d="M539.06,271.256C673.772,271.256 798.916,290.586 893.274,323.07C1006.96,362.21 1076.86,421.536 1076.86,475.256C1076.86,531.236 1002.78,594.262 880.696,634.712C788.396,665.292 666.936,681.256 539.06,681.256C407.952,681.256 283.8,666.272 190.46,634.376C72.368,594.012 1.24,530.17 1.24,475.256C1.24,421.972 67.98,363.104 180.07,324.024C274.78,291.004 403.014,271.256 539.042,271.256L539.06,271.256Z" style="fill:none;stroke:rgb(0,216,255);stroke-width:48px;"/>
                                    <path d="M361.472,373.844C428.772,257.148 508.032,158.396 583.312,92.884C674.012,13.952 760.326,-16.96 806.86,9.874C855.356,37.84 872.944,133.502 846.994,259.466C827.394,354.702 780.526,467.89 716.642,578.666C651.142,692.242 576.142,792.306 501.888,857.21C407.928,939.346 317.088,969.07 269.518,941.636C223.358,915.036 205.706,827.796 227.85,711.17C246.56,612.63 293.514,491.68 361.45,373.842L361.472,373.844Z" style="fill:none;stroke:rgb(0,216,255);stroke-width:48px;"/>
                                    <path d="M361.64,578.964C294.15,462.4 248.2,344.39 229.02,246.454C205.932,128.454 222.256,38.234 268.748,11.322C317.196,-16.726 408.858,15.81 505.028,101.202C577.74,165.762 652.404,262.876 716.474,373.548C782.162,487.014 831.394,601.968 850.546,698.712C874.78,821.138 855.166,914.68 807.64,942.192C761.526,968.888 677.14,940.624 587.16,863.192C511.134,797.772 429.796,696.686 361.64,578.962L361.64,578.964Z" style="fill:none;stroke:rgb(0,216,255);stroke-width:48px;"/>
                                </g>
                            </g>
                        </g>
                    </g>
                </g>
            </g>
        </g>
    </g>
</svg>
