<?xml version="1.0" encoding="UTF-8" standalone="no"?>
<!DOCTYPE svg PUBLIC "-//W3C//DTD SVG 1.1//EN" "http://www.w3.org/Graphics/SVG/1.1/DTD/svg11.dtd">
<svg width="100%" height="100%" viewBox="0 0 103 103" version="1.1" xmlns="http://www.w3.org/2000/svg" xmlns:xlink="http://www.w3.org/1999/xlink" xml:space="preserve" xmlns:serif="http://www.serif.com/" style="fill-rule:evenodd;clip-rule:evenodd;stroke-linejoin:round;stroke-miterlimit:2;">
    <g transform="matrix(1,0,0,1,-1505,-2292.56)">
        <g transform="matrix(1,0,0,1,-49,2160.56)">
            <g transform="matrix(2.01961,0,0,2.01961,1339.92,-871.745)">
                <path d="M157,509.75C157,502.713 151.287,497 144.25,497L118.75,497C111.713,497 106,502.713 106,509.75L106,535.25C106,542.287 111.713,548 118.75,548L144.25,548C151.287,548 157,542.287 157,535.25L157,509.75Z" style="fill:rgb(64,64,64);"/>
                <g transform="matrix(0.495146,0,0,0.495146,131.5,522.5)">
                    <g transform="matrix(1,0,0,1,-32,-32)">
                        <clipPath id="_clip1">
                            <rect x="0" y="0" width="64" height="64"/>
                        </clipPath>
                        <g clip-path="url(#_clip1)">
                            <g transform="matrix(0.848327,0,0,0.848327,-15.7671,-18.8994)">
                                <path id="B" d="M91.072,77.528C87.046,79.628 66.192,88.202 61.752,90.516C57.312,92.83 54.846,92.808 51.338,91.132C47.83,89.456 25.638,80.492 21.638,78.58C19.638,77.624 18.59,76.82 18.59,76.06L18.59,68.434C18.59,68.434 47.484,62.144 52.15,60.47C56.816,58.796 58.43,58.736 62.402,60.19C66.374,61.644 90.108,65.926 94.03,67.364L94.03,74.884C94.03,75.638 93.126,76.484 91.076,77.532L91.072,77.528Z" style="fill:rgb(164,30,17);fill-rule:nonzero;"/>
                                <path d="M91.072,69.9C87.046,72 66.192,80.574 61.752,82.888C57.312,85.202 54.846,85.18 51.338,83.504C47.83,81.828 25.638,72.864 21.638,70.952C17.638,69.04 17.558,67.726 21.484,66.188L52.148,54.316C56.812,52.644 58.428,52.582 62.4,54.036C66.372,55.49 87.1,63.74 91.02,65.2C94.94,66.66 95.094,67.82 91.068,69.92L91.072,69.9Z" style="fill:rgb(216,44,32);fill-rule:nonzero;"/>
                                <g id="B1" serif:id="B" transform="matrix(1,0,0,1,0,-12.436)">
                                    <path d="M91.072,77.528C87.046,79.628 66.192,88.202 61.752,90.516C57.312,92.83 54.846,92.808 51.338,91.132C47.83,89.456 25.638,80.492 21.638,78.58C19.638,77.624 18.59,76.82 18.59,76.06L18.59,68.434C18.59,68.434 47.484,62.144 52.15,60.47C56.816,58.796 58.43,58.736 62.402,60.19C66.374,61.644 90.108,65.926 94.03,67.364L94.03,74.884C94.03,75.638 93.126,76.484 91.076,77.532L91.072,77.528Z" style="fill:rgb(164,30,17);fill-rule:nonzero;"/>
                                </g>
                                <path id="C" d="M91.072,57.466C87.046,59.566 66.192,68.14 61.752,70.454C57.312,72.768 54.846,72.746 51.338,71.07C47.83,69.394 25.638,60.43 21.638,58.518C17.638,56.606 17.558,55.292 21.484,53.754L52.148,41.884C56.812,40.21 58.428,40.15 62.4,41.604C66.372,43.058 87.1,51.31 91.024,52.744C94.948,54.178 95.098,55.364 91.072,57.464L91.072,57.466Z" style="fill:rgb(216,44,32);fill-rule:nonzero;"/>
                                <path d="M91.072,52.196C87.046,54.296 66.192,62.87 61.752,65.186C57.312,67.502 54.846,67.478 51.338,65.802C47.83,64.126 25.638,55.162 21.638,53.25C19.638,52.294 18.59,51.49 18.59,50.73L18.59,43.1C18.59,43.1 47.484,36.81 52.15,35.136C56.816,33.462 58.43,33.402 62.402,34.856C66.374,36.31 90.108,40.592 94.03,42.03L94.03,49.55C94.03,50.304 93.126,51.15 91.076,52.198L91.072,52.196Z" style="fill:rgb(164,30,17);fill-rule:nonzero;"/>
                                <g id="C1" serif:id="C" transform="matrix(1,0,0,1,0,-12.898)">
                                    <path d="M91.072,57.466C87.046,59.566 66.192,68.14 61.752,70.454C57.312,72.768 54.846,72.746 51.338,71.07C47.83,69.394 25.638,60.43 21.638,58.518C17.638,56.606 17.558,55.292 21.484,53.754L52.148,41.884C56.812,40.21 58.428,40.15 62.4,41.604C66.372,43.058 87.1,51.31 91.024,52.744C94.948,54.178 95.098,55.364 91.072,57.464L91.072,57.466Z" style="fill:rgb(216,44,32);fill-rule:nonzero;"/>
                                </g>
                                <g>
                                    <path d="M58.192,41.424L55.828,37.494L48.28,36.814L53.912,34.782L52.222,31.662L57.494,33.722L62.466,32.094L61.122,35.318L66.19,37.218L59.654,37.898L58.192,41.424ZM45.6,49.248L63.08,46.564L57.8,54.308L45.6,49.248Z" style="fill:white;fill-rule:nonzero;"/>
                                    <ellipse cx="40.888" cy="42.804" rx="9.344" ry="3.622" style="fill:white;"/>
                                </g>
                                <path d="M84.264,42.276L73.924,46.36L73.916,38.186L84.264,42.276Z" style="fill:rgb(122,12,0);fill-rule:nonzero;"/>
                                <path d="M73.926,46.36L72.806,46.8L62.474,42.716L73.92,38.188L73.926,46.36Z" style="fill:rgb(173,33,21);fill-rule:nonzero;"/>
                            </g>
                        </g>
                    </g>
                </g>
            </g>
        </g>
    </g>
</svg>
