<?xml version="1.0" encoding="UTF-8" standalone="no"?>
<!DOCTYPE svg PUBLIC "-//W3C//DTD SVG 1.1//EN" "http://www.w3.org/Graphics/SVG/1.1/DTD/svg11.dtd">
<svg width="100%" height="100%" viewBox="0 0 103 103" version="1.1" xmlns="http://www.w3.org/2000/svg" xmlns:xlink="http://www.w3.org/1999/xlink" xml:space="preserve" xmlns:serif="http://www.serif.com/" style="fill-rule:evenodd;clip-rule:evenodd;">
    <g transform="matrix(1,0,0,1,-64,-2292.56)">
        <g transform="matrix(1,0,0,1,-49,2160.56)">
            <g transform="matrix(2.01961,0,0,2.01961,-101.078,-871.745)">
                <path d="M157,509.75C157,502.713 151.287,497 144.25,497L118.75,497C111.713,497 106,502.713 106,509.75L106,535.25C106,542.287 111.713,548 118.75,548L144.25,548C151.287,548 157,542.287 157,535.25L157,509.75Z" style="fill:url(#_Linear1);"/>
                <g transform="matrix(0.666931,0,0,0.666931,131.5,522.5)">
                    <g transform="matrix(1,0,0,1,-25.5,-24.5)">
                        <clipPath id="_clip2">
                            <rect x="0" y="0" width="51" height="49"/>
                        </clipPath>
                        <g clip-path="url(#_clip2)">
                            <g transform="matrix(1.16793,0,0,1.16793,-930.453,-419.899)">
                                <g>
                                    <g>
                                        <g>
                                            <rect x="796.722" y="358.722" width="43.556" height="43.556" style="fill:url(#_Linear3);"/>
                                            <rect x="794.681" y="356.681" width="47.638" height="47.638" style="fill:none;stroke:rgb(135,145,150);stroke-width:1.36px;"/>
                                            <path d="M814.417,385.944L822.583,385.944L822.584,387.986L814.417,387.986L814.417,385.944ZM814.417,389.347L822.583,389.347C823.334,389.347 823.944,388.737 823.944,387.986L823.944,385.944C823.944,385.194 823.334,384.583 822.583,384.583L814.417,384.583C813.666,384.583 813.056,385.194 813.056,385.944L813.056,387.986C813.056,388.737 813.666,389.347 814.417,389.347ZM813.056,378.458L823.944,378.458L823.944,377.097L813.056,377.097L813.056,378.458ZM813.056,371.653L817.139,371.653L817.139,370.292L813.056,370.292L813.056,371.653ZM813.056,375.056L817.819,375.056L817.819,373.694L813.056,373.694L813.056,375.056ZM830.75,393.258C830.75,393.729 830.367,394.111 829.897,394.111L807.103,394.111C806.633,394.111 806.25,393.729 806.25,393.258L806.25,382.542L830.75,382.542L830.75,393.258ZM811.014,366.889L820.542,366.889L820.542,371.653C820.542,372.028 820.846,372.333 821.222,372.333L825.986,372.333L825.986,381.181L811.014,381.181L811.014,366.889ZM821.903,367.851L825.024,370.972L821.903,370.972L821.903,367.851ZM831.431,381.181L827.347,381.181L827.347,371.653L827.341,371.653C827.34,371.476 827.278,371.302 827.148,371.172L821.703,365.727C821.573,365.597 821.399,365.535 821.222,365.534L821.222,365.528L810.333,365.528C809.957,365.528 809.653,365.833 809.653,366.208L809.653,381.181L805.569,381.181C805.193,381.181 804.889,381.485 804.889,381.861L804.889,393.258C804.889,394.479 805.883,395.472 807.103,395.472L829.897,395.472C831.117,395.472 832.111,394.479 832.111,393.258L832.111,381.861C832.111,381.485 831.807,381.181 831.431,381.181Z" style="fill:white;"/>
                                        </g>
                                    </g>
                                </g>
                            </g>
                        </g>
                    </g>
                </g>
            </g>
        </g>
    </g>
    <defs>
        <linearGradient id="_Linear1" x1="0" y1="0" x2="1" y2="0" gradientUnits="userSpaceOnUse" gradientTransform="matrix(34.0135,-32.6796,32.6796,34.0135,114.493,538.84)"><stop offset="0" style="stop-color:rgb(28,103,16);stop-opacity:1"/><stop offset="1" style="stop-color:rgb(107,173,61);stop-opacity:1"/></linearGradient>
        <linearGradient id="_Linear3" x1="0" y1="0" x2="1" y2="0" gradientUnits="userSpaceOnUse" gradientTransform="matrix(43.556,-43.556,43.556,43.556,796.722,402.278)"><stop offset="0" style="stop-color:rgb(27,102,15);stop-opacity:1"/><stop offset="1" style="stop-color:rgb(108,174,62);stop-opacity:1"/></linearGradient>
    </defs>
</svg>
