<?xml version="1.0" encoding="UTF-8" standalone="no"?>
<!DOCTYPE svg PUBLIC "-//W3C//DTD SVG 1.1//EN" "http://www.w3.org/Graphics/SVG/1.1/DTD/svg11.dtd">
<svg width="100%" height="100%" viewBox="0 0 103 103" version="1.1" xmlns="http://www.w3.org/2000/svg" xmlns:xlink="http://www.w3.org/1999/xlink" xml:space="preserve" xmlns:serif="http://www.serif.com/" style="fill-rule:evenodd;clip-rule:evenodd;stroke-linejoin:round;stroke-miterlimit:2;">
    <g transform="matrix(1,0,0,1,-326,-2292.56)">
        <g transform="matrix(1,0,0,1,-49,2160.56)">
            <g transform="matrix(2.01961,0,0,2.01961,160.922,-871.745)">
                <path d="M157,509.75C157,502.713 151.287,497 144.25,497L118.75,497C111.713,497 106,502.713 106,509.75L106,535.25C106,542.287 111.713,548 118.75,548L144.25,548C151.287,548 157,542.287 157,535.25L157,509.75Z" style="fill:rgb(230,230,230);"/>
                <g transform="matrix(0.495146,0,0,0.495146,131.5,522.5)">
                    <g transform="matrix(1,0,0,1,-38,-38)">
                        <path d="M60.38,41.225C58.47,41.228 56.586,41.665 54.87,42.503C54.303,41.381 53.736,40.381 53.636,39.647C53.526,38.792 53.392,38.27 53.526,37.247C53.659,36.225 54.259,34.77 54.247,34.658C54.237,34.548 54.114,34.025 52.892,34.014C51.67,34.003 50.614,34.247 50.492,34.569C50.28,35.16 50.109,35.765 49.981,36.38C49.77,37.492 47.536,41.458 46.259,43.536C45.847,42.726 45.492,42.014 45.414,41.447C45.303,40.592 45.17,40.069 45.303,39.047C45.437,38.025 46.036,36.57 46.025,36.458C46.014,36.348 45.892,35.825 44.67,35.814C43.447,35.803 42.392,36.047 42.27,36.37C42.147,36.692 42.014,37.447 41.759,38.18C41.503,38.914 38.536,45.536 37.759,47.247C37.444,47.94 37.114,48.625 36.769,49.303C36.424,49.981 36.759,49.336 36.725,49.392C36.617,49.604 36.505,49.815 36.392,50.025L36.392,50.036C36.225,50.336 36.047,50.614 35.959,50.614C35.892,50.614 35.769,49.814 35.981,48.725C36.425,46.425 37.481,42.847 37.47,42.725C37.47,42.658 37.67,42.036 36.78,41.714C35.914,41.392 35.603,41.925 35.525,41.925C35.447,41.925 35.392,42.114 35.392,42.114C35.392,42.114 36.359,38.092 33.547,38.092C31.792,38.092 29.37,40.014 28.17,41.747C26.805,42.49 25.442,43.234 24.08,43.981C23.426,44.347 22.748,44.714 22.114,45.058C22.07,45.014 22.025,44.958 21.981,44.914C18.581,41.281 12.292,38.714 12.559,33.836C12.659,32.059 13.269,27.392 24.636,21.726C33.992,17.114 41.436,18.392 42.726,21.226C44.57,25.27 38.735,32.78 29.07,33.87C25.38,34.28 23.447,32.858 22.959,32.325C22.448,31.769 22.369,31.736 22.181,31.847C21.87,32.014 22.07,32.514 22.181,32.803C22.47,33.558 23.658,34.892 25.67,35.547C27.447,36.125 31.77,36.447 37.003,34.425C42.858,32.158 47.436,25.859 46.092,20.581C44.747,15.225 35.859,13.459 27.447,16.447C22.447,18.225 17.025,21.025 13.125,24.67C8.492,29.003 7.758,32.77 8.058,34.347C9.136,39.947 16.858,43.592 19.948,46.292C19.792,46.381 19.648,46.459 19.525,46.525C17.981,47.292 12.092,50.37 10.625,53.625C8.959,57.314 10.892,59.959 12.17,60.314C16.136,61.414 20.214,59.436 22.403,56.169C24.592,52.903 24.325,48.659 23.314,46.714C23.303,46.692 23.292,46.67 23.27,46.647C23.67,46.414 24.08,46.17 24.48,45.937C25.216,45.502 25.96,45.083 26.714,44.681C26.336,45.714 26.059,46.947 25.925,48.725C25.759,50.815 26.614,53.525 27.736,54.592C28.236,55.059 28.826,55.07 29.203,55.07C30.514,55.07 31.103,53.98 31.759,52.692C32.559,51.114 33.281,49.281 33.281,49.281C33.281,49.281 32.381,54.236 34.825,54.236C35.715,54.236 36.615,53.081 37.015,52.492L37.015,52.502C37.015,52.502 37.036,52.469 37.081,52.392L37.225,52.158L37.225,52.136C38.044,50.697 38.826,49.237 39.57,47.758C41.103,44.736 42.58,40.958 42.58,40.958C42.58,40.958 42.714,41.881 43.17,43.414C43.437,44.314 43.992,45.303 44.436,46.258C44.081,46.758 43.859,47.036 43.859,47.036L43.869,47.047C43.581,47.425 43.269,47.837 42.925,48.237C41.714,49.681 40.27,51.337 40.07,51.814C39.836,52.381 39.892,52.792 40.337,53.125C40.659,53.37 41.237,53.403 41.825,53.37C42.915,53.292 43.681,53.025 44.058,52.859C44.745,52.617 45.393,52.276 45.981,51.847C47.17,50.969 47.891,49.714 47.825,48.059C47.792,47.148 47.492,46.236 47.125,45.381C47.236,45.225 47.336,45.07 47.447,44.914C49.325,42.169 50.781,39.158 50.781,39.158C50.781,39.158 50.914,40.08 51.37,41.614C51.592,42.392 52.048,43.236 52.447,44.058C50.681,45.492 49.592,47.158 49.203,48.248C48.503,50.27 49.047,51.181 50.081,51.392C50.547,51.492 51.214,51.269 51.703,51.058C52.439,50.816 53.133,50.46 53.759,50.003C54.948,49.125 56.092,47.903 56.025,46.248C55.992,45.492 55.792,44.748 55.515,44.025C57.015,43.403 58.947,43.059 61.414,43.347C66.704,43.969 67.747,47.269 67.547,48.659C67.347,50.047 66.237,50.803 65.87,51.036C65.503,51.27 65.38,51.347 65.414,51.514C65.458,51.758 65.636,51.747 65.948,51.703C66.381,51.625 68.725,50.581 68.825,48.025C68.992,44.758 65.881,41.192 60.381,41.225L60.38,41.225ZM19.58,54.981C17.825,56.891 15.38,57.614 14.325,57.003C13.192,56.347 13.636,53.525 15.792,51.503C17.102,50.27 18.792,49.125 19.914,48.425C20.17,48.27 20.547,48.047 21.004,47.77C21.081,47.725 21.125,47.703 21.125,47.703L21.392,47.536C22.181,50.425 21.425,52.97 19.581,54.981L19.58,54.981ZM32.359,46.291C31.747,47.781 30.469,51.591 29.692,51.381C29.025,51.203 28.614,48.314 29.559,45.459C30.036,44.025 31.047,42.314 31.636,41.647C32.592,40.581 33.648,40.225 33.903,40.659C34.225,41.225 32.736,45.359 32.359,46.292L32.359,46.291ZM42.903,51.336C42.647,51.47 42.403,51.559 42.292,51.492C42.214,51.447 42.403,51.27 42.403,51.27C42.403,51.27 43.725,49.847 44.247,49.203C44.547,48.825 44.903,48.381 45.281,47.881L45.281,48.025C45.281,49.725 43.636,50.87 42.903,51.336ZM51.036,49.481C50.847,49.347 50.881,48.903 51.514,47.514C51.758,46.969 52.336,46.058 53.325,45.181C53.436,45.536 53.515,45.881 53.503,46.203C53.492,48.347 51.959,49.147 51.036,49.481Z" style="fill:rgb(205,103,153);fill-rule:nonzero;"/>
                    </g>
                </g>
            </g>
        </g>
    </g>
</svg>
