<?xml version="1.0" encoding="UTF-8" standalone="no"?>
<!DOCTYPE svg PUBLIC "-//W3C//DTD SVG 1.1//EN" "http://www.w3.org/Graphics/SVG/1.1/DTD/svg11.dtd">
<svg width="100%" height="100%" viewBox="0 0 103 103" version="1.1" xmlns="http://www.w3.org/2000/svg" xmlns:xlink="http://www.w3.org/1999/xlink" xml:space="preserve" xmlns:serif="http://www.serif.com/" style="fill-rule:evenodd;clip-rule:evenodd;stroke-linejoin:round;stroke-miterlimit:2;">
    <g transform="matrix(1,0,0,1,67,-2292.56)">
        <g transform="matrix(1,0,0,1,-49,2160.56)">
            <g transform="matrix(2.01961,0,0,2.01961,-232.078,-871.745)">
                <path d="M157,509.75C157,502.713 151.287,497 144.25,497L118.75,497C111.713,497 106,502.713 106,509.75L106,535.25C106,542.287 111.713,548 118.75,548L144.25,548C151.287,548 157,542.287 157,535.25L157,509.75Z" style="fill:rgb(230,230,230);"/>
                <g transform="matrix(0.495146,0,0,0.495146,131.5,522.5)">
                    <g transform="matrix(1,0,0,1,-32,-32)">
                        <path d="M16,25.6C18.133,17.067 23.467,12.8 32,12.8C44.8,12.8 46.4,22.4 52.8,24C57.067,25.067 60.8,23.467 64,19.2C61.867,27.733 56.533,32 48,32C35.2,32 33.6,22.4 27.2,20.8C22.933,19.733 19.2,21.333 16,25.6ZM0,44.8C2.133,36.267 7.467,32 16,32C28.8,32 30.4,41.6 36.8,43.2C41.067,44.267 44.8,42.667 48,38.4C45.867,46.933 40.533,51.2 32,51.2C19.2,51.2 17.6,41.6 11.2,40C6.933,38.933 3.2,40.533 0,44.8Z" style="fill:url(#_Linear1);"/>
                    </g>
                </g>
            </g>
        </g>
    </g>
    <defs>
        <linearGradient id="_Linear1" x1="0" y1="0" x2="1" y2="0" gradientUnits="userSpaceOnUse" gradientTransform="matrix(64,106.666,-106.666,64,0,-21.333)"><stop offset="0" style="stop-color:rgb(35,131,174);stop-opacity:1"/><stop offset="1" style="stop-color:rgb(109,215,185);stop-opacity:1"/></linearGradient>
    </defs>
</svg>
