<?xml version="1.0" encoding="UTF-8" standalone="no"?>
<!DOCTYPE svg PUBLIC "-//W3C//DTD SVG 1.1//EN" "http://www.w3.org/Graphics/SVG/1.1/DTD/svg11.dtd">
<svg width="100%" height="100%" viewBox="0 0 103 103" version="1.1" xmlns="http://www.w3.org/2000/svg" xmlns:xlink="http://www.w3.org/1999/xlink" xml:space="preserve" xmlns:serif="http://www.serif.com/" style="fill-rule:evenodd;clip-rule:evenodd;stroke-linejoin:round;stroke-miterlimit:2;">
    <g transform="matrix(1,0,0,1,-457,-2292.56)">
        <g transform="matrix(1,0,0,1,-49,2160.56)">
            <g transform="matrix(2.01961,0,0,2.01961,291.922,-871.745)">
                <path d="M157,509.75C157,502.713 151.287,497 144.25,497L118.75,497C111.713,497 106,502.713 106,509.75L106,535.25C106,542.287 111.713,548 118.75,548L144.25,548C151.287,548 157,542.287 157,535.25L157,509.75Z" style="fill:rgb(0,122,204);"/>
                <g transform="matrix(0.495146,0,0,0.495146,131.5,522.5)">
                    <g transform="matrix(1,0,0,1,-38,-38)">
                        <path d="M8,8L8,68L68,68L68,8L8,8Z" style="fill:rgb(0,122,204);fill-rule:nonzero;"/>
                        <path d="M21.268,38.199L21.249,40.656L29.059,40.656L29.059,62.847L34.583,62.847L34.583,40.656L42.392,40.656L42.392,38.247C42.392,36.913 42.364,35.799 42.326,35.77C42.297,35.732 37.545,35.713 31.783,35.723L21.297,35.751L21.268,38.199L21.268,38.199Z" style="fill:white;fill-rule:nonzero;"/>
                        <path d="M56.414,35.682C57.938,36.063 59.1,36.739 60.167,37.843C60.719,38.434 61.538,39.51 61.605,39.767C61.623,39.844 59.014,41.596 57.433,42.577C57.376,42.615 57.147,42.367 56.89,41.986C56.119,40.863 55.309,40.377 54.071,40.291C52.252,40.167 51.081,41.12 51.09,42.71C51.09,43.177 51.157,43.453 51.347,43.834C51.748,44.663 52.49,45.158 54.824,46.167C59.119,48.015 60.957,49.234 62.1,50.967C63.376,52.901 63.662,55.986 62.795,58.282C61.843,60.777 59.481,62.472 56.157,63.034C55.128,63.215 52.69,63.186 51.586,62.987C49.176,62.558 46.89,61.367 45.481,59.806C44.928,59.196 43.852,57.606 43.919,57.491C43.948,57.453 44.195,57.301 44.471,57.139C44.738,56.987 45.748,56.405 46.7,55.853L48.424,54.853L48.786,55.386C49.29,56.158 50.395,57.215 51.062,57.567C52.976,58.577 55.605,58.434 56.9,57.272C57.452,56.767 57.681,56.243 57.681,55.472C57.681,54.777 57.595,54.472 57.233,53.949C56.767,53.282 55.814,52.72 53.109,51.548C50.014,50.215 48.681,49.386 47.462,48.072C46.757,47.31 46.09,46.091 45.814,45.072C45.586,44.225 45.528,42.101 45.709,41.244C46.347,38.253 48.605,36.167 51.862,35.548C52.919,35.348 55.376,35.425 56.414,35.682L56.414,35.682Z" style="fill:white;fill-rule:nonzero;"/>
                    </g>
                </g>
            </g>
        </g>
    </g>
</svg>
